<svg version="1.0" xmlns="http://www.w3.org/2000/svg"
 width="100%" height="100%" viewBox="0 0 300.212691 547.767825"
 preserveAspectRatio="xMidYMid meet">
<metadata>
Created by potrace 1.16, written by Peter Selinger 2001-2019
</metadata>
<g transform="translate(-23.787309,561.767825) scale(0.100000,-0.100000)"
fill="currentColor" stroke="none">
<path d="M258 5609 c-16 -9 -17 -52 -19 -512 -3 -961 -2 -1250 7 -2522 5 -704
9 -1540 9 -1857 0 -489 2 -578 14 -578 15 0 14 440 -5 3480 -4 564 -3 1235 1
1492 7 466 7 466 54 472 25 3 485 10 1021 16 536 5 995 11 1020 13 25 2 -434
4 -1020 5 -652 0 -1072 -3 -1082 -9z"/>
<path d="M1688 5563 c-1 -4 -16 -19 -32 -33 -29 -25 -29 -25 -23 -3 3 13 1 26
-4 29 -11 7 -39 -14 -39 -28 0 -6 7 -5 15 2 20 16 20 1 0 -46 -15 -37 -35 -38
-35 -3 0 19 -1 19 -16 5 -18 -19 -34 -12 -34 14 0 10 -4 21 -9 24 -13 8 -27
-13 -39 -57 -6 -20 -22 -51 -36 -68 -14 -17 -26 -38 -26 -47 0 -11 -8 -6 -22
15 -36 51 -52 43 -44 -19 4 -29 13 -58 21 -64 22 -17 20 -47 -2 -36 -31 16
-73 23 -73 13 0 -14 51 -61 78 -72 28 -11 29 -44 1 -46 -27 -2 -59 -31 -59
-53 0 -12 8 -15 35 -12 19 2 38 8 41 13 8 14 24 10 24 -6 0 -8 8 -22 19 -31
17 -15 17 -21 4 -93 -28 -151 -24 -145 -95 -160 -55 -11 -70 -20 -114 -64 -59
-59 -74 -99 -74 -198 0 -80 -12 -95 -67 -84 -21 4 -59 7 -84 7 -46 0 -46 0
-56 41 -5 23 -14 41 -20 40 -7 -2 -15 6 -18 17 -10 33 -20 23 -33 -35 -13 -56
-7 -88 20 -98 10 -3 8 -9 -4 -24 -10 -11 -18 -35 -18 -53 0 -18 -8 -42 -17
-53 -17 -18 -17 -19 2 -33 11 -8 25 -12 33 -9 7 2 21 0 31 -7 14 -9 28 -4 72
24 30 19 63 45 73 57 11 11 30 21 43 21 43 0 108 46 127 90 3 8 4 4 1 -10 -3
-14 -12 -61 -20 -105 -8 -44 -21 -98 -30 -120 -39 -107 -30 -98 -75 -75 -36
19 -132 36 -235 42 -30 2 -42 9 -51 26 -9 17 -14 20 -20 11 -4 -7 -3 -14 4
-17 7 -2 12 -14 12 -27 0 -13 5 -25 10 -27 6 -2 12 -23 13 -48 2 -45 2 -45
-36 -48 -20 -2 -35 -7 -32 -11 2 -5 26 -5 52 0 27 4 73 10 104 14 31 3 65 12
75 19 17 13 17 15 -6 40 -30 31 -46 33 -61 4 -11 -21 -12 -21 -25 10 -15 38
-29 40 -45 10 -12 -22 -12 -22 -20 -3 -13 33 -11 35 44 34 127 -1 247 -39 247
-79 0 -63 -182 -104 -460 -102 -96 0 -186 3 -200 6 -14 3 -49 11 -78 17 -29 6
-64 21 -79 33 -22 19 -24 25 -14 43 11 22 77 48 159 64 47 8 47 8 -3 4 -53 -4
-141 -30 -164 -48 -10 -8 -12 -26 -7 -67 5 -43 13 -60 36 -81 16 -15 31 -25
34 -22 2 2 7 -4 10 -15 12 -37 52 -52 169 -63 62 -6 119 -12 128 -13 9 -1 32
-12 53 -24 20 -12 40 -22 43 -22 3 0 34 -14 69 -31 73 -36 74 -39 52 -154 -10
-57 -9 -66 9 -96 17 -29 21 -52 21 -147 0 -72 5 -118 12 -127 9 -11 11 -79 9
-249 -4 -235 -4 -235 27 -268 31 -33 31 -33 27 -303 -6 -303 -1 -338 47 -370
42 -27 57 -66 70 -181 10 -96 23 -133 65 -189 34 -47 39 -70 36 -212 -2 -123
-1 -133 19 -150 62 -53 88 -87 93 -121 7 -43 22 -439 21 -526 -1 -58 -2 -60
-56 -110 -30 -28 -78 -70 -106 -94 -28 -23 -66 -63 -83 -88 -28 -41 -31 -52
-27 -99 5 -59 47 -135 74 -135 11 0 6 11 -16 39 -43 52 -49 106 -21 164 21 43
47 69 192 198 54 47 73 74 119 165 54 106 143 238 191 280 42 38 132 90 204
118 49 20 115 34 220 47 82 11 168 24 190 30 83 22 175 95 175 140 0 29 16 23
30 -11 28 -67 -11 -142 -102 -197 -64 -39 -143 -59 -263 -68 -199 -14 -295
-46 -396 -132 -75 -64 -97 -91 -174 -219 -92 -152 -105 -167 -211 -245 -144
-107 -178 -167 -134 -237 26 -42 66 -58 160 -65 69 -5 73 -4 45 9 -16 7 -54
13 -83 14 -48 0 -58 4 -88 34 -42 42 -44 79 -6 129 24 32 145 127 162 127 4 0
2 -28 -3 -62 -6 -35 -11 -83 -11 -108 -1 -37 2 -45 19 -48 11 -1 44 -10 73
-18 39 -12 52 -21 52 -35 0 -10 11 -26 24 -34 21 -14 36 -14 113 -4 48 6 96
16 106 21 36 19 127 37 189 39 35 0 121 0 192 -1 70 0 141 2 157 5 24 6 29 3
35 -20 9 -37 52 -55 131 -55 71 0 86 5 95 31 8 20 97 66 146 75 44 8 65 22 58
41 -4 10 14 13 90 13 108 0 107 1 39 -80 -20 -24 -40 -51 -46 -61 -9 -17 -6
-19 26 -19 19 0 35 4 35 8 0 5 16 27 35 49 28 33 35 49 35 85 0 43 0 43 -123
40 -123 -3 -123 -3 -149 50 -35 73 -42 91 -93 268 -25 85 -45 168 -45 184 0
16 -14 72 -31 125 -61 190 -64 224 -27 320 5 13 12 60 15 105 3 45 11 88 18
96 7 8 23 38 36 66 24 49 24 55 16 185 -10 151 -3 188 44 229 29 25 29 25 19
331 -5 168 -12 323 -16 345 -5 36 -2 44 41 97 48 57 48 57 41 150 -4 50 -10
102 -13 114 -4 16 4 31 30 55 62 59 67 73 56 163 -5 44 -12 87 -15 95 -3 8 3
110 13 227 16 197 18 211 32 186 13 -26 15 -26 22 -8 14 36 9 74 -13 117 -21
41 -23 41 -29 18 -4 -15 -7 -18 -8 -8 -1 9 -3 23 -6 31 -13 32 27 10 86 -50
58 -58 64 -68 65 -108 2 -41 32 -124 46 -125 12 0 19 76 10 101 -6 14 -22 39
-37 57 -32 38 -18 42 24 6 19 -16 33 -39 37 -62 4 -20 18 -57 33 -82 26 -45
26 -45 29 -11 5 53 -6 82 -48 123 -40 38 -40 38 8 31 26 -3 52 -10 58 -14 6
-5 14 -6 18 -2 7 8 -50 63 -66 63 -5 0 0 -9 13 -20 24 -19 24 -19 -16 -13 -49
7 -66 20 -45 34 11 7 3 9 -30 6 -57 -5 -87 10 -134 67 -36 45 -37 46 -13 46
13 0 32 -9 42 -20 10 -11 30 -20 44 -20 24 1 24 2 -9 16 -32 14 -33 16 -16 26
14 8 27 6 52 -6 19 -8 34 -20 34 -26 0 -5 7 -10 16 -10 22 0 8 17 -29 37 -22
12 -56 17 -105 18 -61 0 -76 3 -88 19 -20 28 -17 39 6 26 11 -6 20 -7 20 -3
-1 19 -58 89 -83 101 -15 7 -27 20 -27 28 0 13 17 14 115 11 136 -6 178 -23
181 -74 2 -37 43 -115 58 -110 6 2 10 23 9 47 -2 33 -9 51 -35 77 -33 34 -32
41 5 22 34 -18 53 -42 67 -83 14 -44 51 -105 64 -106 5 0 6 23 4 50 -5 50 -29
90 -55 90 -7 0 -13 5 -13 11 0 20 75 -32 100 -69 37 -57 62 -82 81 -82 16 0
16 3 -2 39 -10 22 -23 43 -29 46 -15 9 -12 -7 5 -29 8 -11 15 -26 15 -34 0
-12 -3 -12 -16 -1 -24 20 -46 67 -33 71 6 2 -10 17 -35 33 -44 28 -50 49 -7
26 11 -6 42 -11 70 -11 40 0 51 3 51 16 0 13 -3 14 -14 5 -17 -14 -91 -11 -91
4 0 6 16 13 35 17 34 6 34 7 -5 3 -22 -2 -56 -6 -75 -10 -23 -4 -48 -1 -70 9
-35 15 -35 15 3 16 42 0 138 40 134 54 -5 16 -27 19 -27 3 0 -7 -11 -19 -25
-25 -31 -14 -75 -16 -75 -3 0 11 25 21 56 21 13 0 24 4 24 8 0 17 -70 -1 -91
-24 -25 -26 -61 -31 -106 -13 -28 11 -28 11 22 26 28 7 66 18 86 22 42 9 122
72 109 85 -4 4 -25 3 -45 -4 -21 -7 -40 -8 -44 -4 -19 27 -127 44 -148 23 -6
-6 -21 -9 -34 -7 -22 4 -21 6 14 22 21 9 61 21 88 26 28 5 64 19 80 31 43 31
28 35 -16 4 -41 -27 -60 -31 -70 -15 -11 17 14 39 57 50 21 6 46 14 55 17 12
5 14 3 8 -8 -6 -11 -5 -12 5 -2 23 21 4 26 -52 14 -52 -12 -98 -43 -98 -67 0
-13 -85 -57 -110 -57 -8 0 -26 -9 -40 -22 -14 -12 -58 -34 -99 -48 -70 -25
-75 -26 -87 -9 -7 9 -14 20 -14 23 0 4 23 26 52 50 28 24 109 108 179 186 93
102 138 145 164 153 32 11 95 75 95 98 0 7 -17 5 -45 -5 -42 -14 -84 -52 -85
-77 -1 -18 -100 -122 -100 -104 0 8 9 23 20 33 20 18 50 101 50 137 0 24 -17
23 -31 -3 -8 -15 -8 -19 0 -15 7 4 11 -1 11 -14 0 -29 -27 -90 -39 -90 -14 0
-14 45 0 73 10 21 10 21 -5 3 -10 -12 -16 -39 -16 -68 0 -66 -18 -102 -88
-178 -60 -65 -60 -65 -52 -20 11 63 -6 106 -52 133 -21 11 -41 18 -44 14 -10
-9 34 -88 64 -114 24 -20 25 -24 14 -62 -11 -35 -72 -101 -94 -101 -10 0 -65
176 -73 235 -10 68 -69 178 -119 221 -62 54 -147 93 -231 106 -75 12 -75 12
-101 80 -15 37 -29 66 -32 64 -6 -7 67 -188 80 -201 11 -10 10 -5 -8 39 -7 17
-4 18 39 12 129 -20 214 -72 270 -167 20 -35 37 -58 37 -50 0 7 -8 25 -18 39
-28 41 -36 60 -13 32 11 -14 33 -47 48 -75 26 -47 28 -58 28 -165 0 -114 0
-116 -38 -189 -62 -119 -183 -231 -249 -231 -16 0 -50 -10 -76 -21 -42 -20
-53 -21 -103 -10 -84 17 -93 12 -16 -9 38 -10 79 -28 92 -40 20 -19 45 -85 45
-119 0 -13 -184 -13 -270 -1 -54 7 -54 7 -12 9 23 0 42 5 42 10 0 5 -33 7 -74
6 -40 -2 -80 2 -87 7 -10 6 -6 7 11 3 23 -6 24 -5 5 6 -39 24 -76 67 -62 73 6
3 -1 4 -18 0 -36 -7 -56 -24 -37 -31 7 -3 21 -13 30 -22 9 -9 30 -23 45 -31
16 -8 24 -16 18 -18 -5 -2 -19 1 -30 7 -11 6 -29 11 -40 11 -12 0 -21 5 -21
10 0 6 5 10 12 10 6 0 9 2 6 5 -10 10 -39 -8 -34 -21 3 -8 -10 -23 -34 -37
-63 -37 -158 -126 -209 -197 -63 -85 -88 -132 -116 -216 -23 -68 -23 -68 -24
-29 -2 91 48 216 129 323 22 28 36 52 32 52 -15 -1 -79 -92 -120 -172 -38 -73
-42 -78 -37 -43 29 177 137 314 330 423 92 51 171 78 339 113 264 55 397 154
442 328 42 165 -36 292 -213 349 -33 11 -38 7 -27 -23 5 -13 9 -14 15 -4 11
18 75 -2 70 -22 -2 -8 -6 -41 -10 -74 -6 -60 -6 -60 -25 3 -11 35 -23 65 -28
68 -11 7 -10 2 7 -40 21 -50 65 -215 65 -244 0 -13 -4 -21 -9 -17 -9 5 -4 -85
4 -93 11 -12 15 154 5 199 -12 48 -10 183 3 195 9 10 70 -32 93 -63 78 -105
47 -290 -66 -398 -34 -32 -41 -36 -40 -20 4 39 -2 39 -13 1 -18 -58 -32 -54
-34 8 -5 105 -43 248 -118 441 -53 137 -130 343 -137 364 -2 8 -16 -10 -32
-41 -43 -86 -65 -108 -112 -115 -35 -4 -45 -1 -65 19 -28 29 -71 49 -49 23 7
-9 10 -18 7 -21 -7 -7 -57 26 -57 38 0 5 -4 6 -10 3 -5 -3 -10 -1 -10 5 0 6
-4 9 -8 6 -10 -6 -10 -5 -13 76 -2 46 -6 58 -22 62 -14 3 -17 1 -12 -12 5 -14
4 -15 -7 -4 -11 11 -9 17 13 36 19 17 24 28 19 46 -8 30 7 93 20 85 5 -3 7 0
5 8 -8 20 71 105 114 123 19 8 46 24 58 36 19 17 25 19 38 8 9 -8 15 -8 15 -2
0 6 -5 14 -10 17 -6 4 -8 11 -5 16 4 5 -1 9 -9 9 -9 0 -16 -3 -16 -8 0 -17
-53 -62 -74 -62 -22 0 -116 -80 -116 -100 0 -5 -12 -16 -26 -23 -17 -9 -23
-17 -15 -21 17 -11 -3 -40 -45 -65 -49 -29 -55 -18 -14 24 43 45 35 54 -13 14
-37 -31 -37 -31 -27 -5 6 17 6 26 0 26 -6 0 -10 -5 -10 -12 0 -6 -3 -9 -6 -6
-12 13 19 50 54 66 33 14 35 16 14 20 -13 2 -30 -2 -38 -8 -10 -9 -14 -9 -14
-1 0 6 4 11 8 11 5 0 17 7 28 15 18 14 17 14 -11 5 -30 -10 -30 -10 -6 10 13
11 29 20 36 20 20 0 39 27 23 33 -11 4 -10 6 0 6 7 1 11 5 7 10 -6 11 31 27
70 30 8 0 15 8 15 17 0 12 6 15 23 9 38 -12 127 -18 127 -9 0 5 -9 15 -20 21
-16 11 -18 10 -14 -2 8 -20 -39 -20 -56 0 -11 13 -8 15 14 15 16 0 25 4 21 10
-9 14 38 13 53 -2 14 -14 45 -20 37 -8 -3 5 -2 11 2 13 11 6 48 -8 48 -19 -1
-5 15 -16 35 -25 19 -9 41 -23 48 -31 10 -13 8 -15 -15 -11 -24 3 -25 2 -8 -6
11 -5 16 -10 10 -11 -5 0 -2 -5 8 -11 9 -6 15 -14 12 -19 -3 -4 4 -6 15 -3 15
4 22 -2 30 -22 13 -35 13 -40 -5 -25 -8 6 -22 10 -32 7 -17 -4 -16 -5 2 -12
23 -10 35 -24 35 -43 0 -22 -40 6 -51 35 -5 15 -21 36 -34 49 -13 12 -21 25
-18 28 4 3 -2 6 -12 6 -15 0 -14 -4 9 -32 45 -55 56 -89 49 -153 -5 -43 -3
-56 5 -51 7 4 12 3 12 -3 0 -5 -4 -13 -10 -16 -12 -7 -14 -62 -2 -69 4 -2 8 7
7 22 0 21 5 27 26 28 19 2 28 -4 37 -24 11 -26 11 -25 6 8 -18 107 -18 106 -5
203 1 5 11 5 22 2 15 -5 19 -4 14 5 -4 6 1 18 11 26 17 13 16 13 -10 4 -16 -6
-31 -8 -33 -6 -8 8 7 26 22 26 7 0 25 20 38 45 26 45 26 45 4 45 -28 -1 -77
-43 -77 -67 0 -37 -29 12 -38 66 -12 68 -5 96 14 55 12 -25 13 -26 8 -4 -16
63 -49 67 -42 5 6 -49 3 -52 -30 -29 -23 16 -31 69 -12 76 5 2 6 9 1 17 -12
18 -34 3 -26 -17 5 -12 1 -12 -17 4 -12 10 -18 12 -12 4 6 -8 11 -22 11 -32
-1 -25 -26 -9 -33 21 -10 45 -14 52 -24 46 -7 -4 -7 -13 0 -26 9 -16 7 -19
-12 -20 -23 0 -23 0 0 -9 12 -5 22 -12 22 -14 0 -3 -7 -3 -15 0 -8 4 -15 2
-15 -3 0 -5 -16 -7 -35 -5 -29 3 -33 7 -24 18 6 8 14 12 18 10 4 -3 7 3 8 12
1 9 3 26 5 37 3 19 -26 35 -34 18z m-228 -634 c-30 -136 -39 -184 -35 -187 9
-9 24 42 40 133 10 55 21 109 26 120 16 40 -3 -128 -26 -221 -22 -95 -36 -118
-85 -144 -21 -11 -22 -11 -15 6 10 25 71 273 85 348 7 35 15 55 21 49 5 -5 1
-47 -11 -104z m405 -66 c3 -16 9 -48 13 -72 6 -40 10 -45 36 -48 56 -8 67 -19
61 -66 -6 -42 -6 -42 9 -12 20 42 19 21 -4 -70 -11 -43 -18 -80 -16 -82 5 -5
23 51 32 100 3 20 11 37 16 37 7 0 9 -33 5 -92 -6 -96 -3 -100 8 -13 7 50 7
50 26 0 54 -140 96 -363 81 -426 -3 -10 -93 -46 -151 -59 -42 -10 -55 -10 -61
0 -5 8 -9 7 -13 -4 -4 -9 -15 -16 -25 -16 -10 0 -52 -9 -92 -19 -41 -11 -75
-19 -75 -18 -1 1 -16 25 -33 53 -18 28 -32 57 -33 65 0 10 -2 11 -6 1 -2 -6 9
-35 26 -62 17 -28 31 -55 31 -60 0 -9 -22 -14 -42 -11 -5 0 -8 -3 -8 -7 0 -4
-15 -13 -32 -20 -18 -6 -57 -27 -86 -47 -30 -19 -58 -35 -62 -35 -5 0 -32 45
-59 101 -59 116 -62 149 -31 269 32 121 60 271 60 323 0 30 4 46 10 42 6 -4 8
-11 5 -16 -4 -5 -1 -9 5 -9 6 0 9 -4 6 -8 -2 -4 4 -8 14 -8 17 0 17 2 -3 30
-20 28 -20 29 -1 22 18 -7 18 -6 1 11 -17 17 -15 19 45 48 60 29 63 32 62 65
-1 19 -5 50 -9 69 -6 25 -5 32 3 27 7 -4 12 -16 12 -27 0 -10 5 -19 10 -19 6
0 8 -12 5 -27 -3 -16 -3 -23 1 -16 3 7 12 9 20 6 8 -3 14 -1 14 4 0 6 26 18
58 28 94 29 122 44 134 70 15 32 24 32 33 -2z m-472 -69 c9 -10 -14 -64 -28
-64 -8 0 -16 -4 -19 -9 -4 -5 3 -7 14 -4 37 10 11 -24 -34 -47 -48 -23 -79
-74 -91 -150 -15 -94 -66 -150 -135 -150 -12 0 -35 -15 -53 -34 -18 -18 -45
-42 -62 -51 -25 -15 -23 -12 10 18 51 46 23 51 -38 8 -40 -29 -97 -50 -97 -37
0 4 7 18 16 31 9 14 13 32 10 41 -8 21 19 64 39 64 8 0 14 3 14 8 -3 19 2 25
11 12 8 -13 10 -13 10 2 0 25 52 33 89 14 41 -21 78 -20 98 3 9 11 21 17 26
14 6 -4 7 -1 2 7 -4 7 -2 16 6 21 10 6 11 9 2 9 -18 0 -17 122 1 163 17 39 65
97 66 80 0 -7 4 -13 10 -13 5 0 7 7 4 15 -8 20 59 49 93 40 16 -4 22 -2 18 5
-7 11 7 14 18 4z m1637 -144 c-21 -30 -49 -50 -69 -50 -21 0 14 53 44 66 45
20 49 17 25 -16z m-1681 -7 c-5 -16 -24 -45 -40 -65 -16 -21 -38 -57 -49 -80
-19 -43 -19 -43 -14 2 11 85 34 132 79 158 31 18 35 14 24 -15z m71 -147 c-7
-49 -23 -126 -35 -170 -44 -151 -49 -197 -31 -259 9 -30 16 -65 16 -77 0 -11
4 -19 10 -15 5 3 16 -7 23 -22 20 -38 11 -126 -14 -149 -15 -14 -19 -14 -20
-3 0 8 -6 3 -12 -11 -7 -14 -28 -50 -47 -79 -35 -54 -35 -54 -38 -2 -2 32 -7
49 -13 45 -6 -3 -10 2 -9 12 4 36 0 65 -8 60 -5 -3 -4 -36 1 -73 5 -37 8 -78
8 -91 0 -13 4 -20 9 -17 6 3 10 1 10 -4 0 -6 -4 -11 -10 -11 -5 0 -10 -12 -11
-27 -1 -22 -3 -19 -13 17 -11 39 -12 16 -9 -159 1 -112 1 -202 -1 -200 -6 6
-34 153 -56 294 -44 283 -51 317 -65 351 -14 34 -20 37 -65 35 -19 -1 -22 1
-10 8 8 5 39 8 68 7 42 -2 58 -8 82 -31 24 -23 30 -25 30 -12 0 11 -21 27 -55
44 -55 27 -55 27 -30 40 14 8 25 22 25 31 0 15 7 17 38 15 37 -3 37 -3 5 7
-18 6 -33 15 -33 20 0 5 13 49 30 97 16 49 36 128 45 176 29 159 73 240 150
273 27 11 31 11 38 -9 5 -13 4 -60 -3 -111z m-504 24 c8 0 11 -6 7 -16 -3 -9
0 -19 7 -24 9 -6 9 -12 0 -30 -11 -21 -12 -21 -31 -4 -10 9 -19 27 -19 40 0
29 12 62 18 46 2 -7 10 -12 18 -12z m1758 -84 c22 -60 -22 -38 -56 27 -20 40
-20 40 13 19 19 -11 38 -32 43 -46z m-189 -302 c-43 -40 -92 -78 -109 -84 -30
-10 -30 -10 -7 14 40 43 110 178 132 257 12 44 12 44 38 -35 26 -79 26 -79
-54 -152z m511 100 c33 -16 33 -16 11 -46 -39 -53 -67 -61 -233 -66 -130 -4
-152 -2 -157 11 -6 16 21 29 151 72 72 23 103 25 127 9 22 -16 70 -17 100 -3
14 6 8 7 -22 3 -43 -6 -88 10 -78 27 9 14 63 11 101 -7z m98 -32 c-38 -39 -88
-55 -82 -25 2 10 22 25 48 34 52 20 59 18 34 -9z m-506 -38 c1 -14 -14 -27
-65 -53 -68 -33 -68 -33 -33 5 71 77 92 88 98 48z m-5 -91 c28 -4 41 -12 47
-29 5 -13 20 -30 34 -39 13 -9 27 -23 30 -32 5 -12 3 -13 -7 -5 -42 35 -182
89 -214 83 -7 -1 -13 2 -13 8 0 18 59 25 123 14z m20 -76 c40 -20 83 -47 95
-60 32 -34 54 -165 47 -272 -7 -111 -16 -175 -24 -175 -4 0 -15 44 -25 98 -25
142 -57 272 -67 272 -12 0 -11 -2 5 -52 18 -54 41 -177 61 -333 8 -66 20 -138
25 -160 5 -22 12 -77 15 -122 6 -80 6 -82 -24 -112 -51 -52 -53 -49 -75 104
-25 166 -75 477 -85 525 -5 25 -15 74 -22 110 -6 36 -16 72 -21 80 -6 10 -7 5
-3 -15 45 -207 137 -793 150 -955 3 -41 8 -89 11 -107 4 -27 -2 -39 -33 -74
-33 -36 -38 -39 -44 -22 -4 10 -8 46 -8 81 -1 59 -8 138 -31 322 -8 72 -9 71
-4 -25 3 -55 9 -129 14 -165 5 -36 10 -108 11 -160 1 -52 5 -124 9 -160 15
-124 20 -228 20 -434 1 -207 1 -207 -24 -227 -14 -11 -26 -28 -26 -36 0 -9 -2
-14 -5 -11 -6 6 -12 77 -25 308 -6 102 -13 191 -15 198 -3 6 10 28 27 47 30
35 30 35 23 178 -4 78 -9 151 -10 162 -1 11 -8 78 -15 148 -7 70 -15 125 -17
123 -3 -3 0 -58 6 -123 6 -65 13 -172 16 -238 3 -66 8 -133 12 -150 5 -30 5
-30 -19 -7 -16 14 -37 22 -59 22 -71 0 -69 -5 -85 311 -7 156 -18 329 -24 384
-27 262 -62 532 -70 555 -9 22 -9 21 -5 -10 4 -34 8 -68 40 -345 8 -71 18
-184 21 -249 7 -119 7 -119 -25 -100 -18 10 -41 29 -51 42 -10 12 -34 29 -52
37 -35 14 -35 14 -42 202 -7 216 -22 402 -36 453 -5 19 -19 41 -30 48 -36 22
-24 35 25 29 49 -7 59 -2 23 12 -22 9 -22 9 6 16 17 5 52 4 78 -2 26 -5 48 -6
48 -1 0 4 -10 8 -22 9 -15 0 1 12 47 35 64 31 76 34 143 31 58 -3 86 -11 145
-40z m-2153 -77 c14 -16 32 -30 40 -30 13 0 13 1 0 10 -23 15 4 28 54 26 22
-1 91 -3 153 -4 112 -2 112 -2 100 -44 -15 -49 -39 -68 -64 -51 -10 6 -17 16
-15 22 1 7 -7 9 -23 5 -21 -5 -145 7 -221 22 -12 2 -31 20 -43 39 -25 43 -15
46 19 5z m560 4 c82 -8 82 -7 106 -132 19 -100 18 -112 -7 -112 -38 0 -161 41
-234 77 -38 20 -71 36 -73 38 -1 1 7 22 18 46 11 24 20 54 20 66 0 18 7 22 38
26 20 2 42 2 48 1 7 -1 44 -6 84 -10z m710 -149 c0 -2 -22 -16 -50 -32 -54
-30 -59 -37 -34 -47 9 -3 45 11 86 35 71 42 71 42 187 30 64 -7 125 -11 136
-10 33 4 101 -2 88 -8 -7 -2 -13 -9 -13 -14 0 -6 4 -8 9 -4 14 8 23 -50 19
-127 -2 -37 -1 -65 4 -62 7 5 12 -176 8 -283 -1 -41 0 -43 37 -58 39 -16 39
-16 42 -95 2 -79 2 -79 -38 -108 -23 -16 -69 -41 -103 -55 -91 -36 -308 -106
-308 -98 0 3 8 20 18 36 21 34 33 65 27 65 -3 0 -18 -27 -35 -59 -19 -38 -38
-62 -52 -67 -13 -4 -54 -22 -93 -41 -70 -34 -95 -36 -95 -9 0 8 -14 54 -31
103 -17 48 -42 122 -55 163 -16 49 -23 61 -19 35 4 -22 28 -106 56 -187 27
-80 49 -149 49 -151 0 -3 -7 -8 -15 -11 -10 -4 -19 2 -26 17 -9 20 -9 20 -4
-5 4 -24 -3 -33 -57 -75 -35 -26 -87 -70 -115 -97 -29 -27 -54 -45 -54 -40 -1
5 -5 122 -9 259 -6 250 -6 250 -8 -25 -2 -275 -2 -275 -27 -305 -24 -30 -24
-30 -19 120 21 649 35 779 101 910 86 170 285 340 366 313 15 -6 27 -12 27
-13z m-690 -181 c0 -82 0 -82 -37 -72 -21 5 -45 16 -54 24 -8 8 -21 14 -28 14
-12 0 -11 24 5 126 4 32 4 32 59 11 55 -20 55 -20 55 -103z m33 54 c9 -38 20
-458 12 -458 -4 0 -16 11 -26 24 -13 17 -34 27 -64 32 -45 6 -45 6 -45 66 0
68 26 117 80 150 32 19 32 19 28 113 -3 90 4 122 15 73z m40 -65 c10 -122 26
-355 43 -628 9 -137 19 -289 23 -337 6 -83 -1 -117 -14 -65 -4 13 -49 61 -101
108 -52 46 -96 91 -99 100 -3 8 1 33 8 55 8 21 17 57 21 79 4 22 11 45 15 50
4 6 14 31 21 57 7 26 19 53 27 60 8 6 24 30 35 52 20 38 20 51 14 231 -4 104
-9 218 -12 253 -2 34 0 62 5 62 4 0 11 -35 14 -77z m-100 -77 c32 -8 32 -29
-1 -34 -11 -2 -24 -11 -27 -21 -3 -10 -14 -26 -25 -36 -20 -18 -20 -17 -20 12
0 58 11 94 29 89 9 -2 29 -7 44 -10z m48 -317 c16 -17 29 -37 29 -43 0 -7 -16
-35 -35 -62 -19 -27 -35 -56 -35 -64 0 -8 -9 -32 -20 -53 -11 -20 -20 -49 -21
-64 0 -16 -4 -37 -9 -48 -4 -11 -7 42 -5 125 2 80 4 169 4 199 1 54 1 54 32
47 17 -3 44 -20 60 -37z m1299 -115 c0 -8 -22 -25 -50 -38 -50 -24 -50 -24
-50 50 0 74 0 74 50 38 28 -20 50 -42 50 -50z m14 -158 c6 -89 6 -89 -14 -71
-18 16 -21 29 -19 80 2 33 7 65 13 71 6 7 12 11 12 10 1 0 4 -41 8 -90z m-86
28 c12 -8 22 -19 22 -23 0 -5 -19 -27 -42 -50 -53 -52 -188 -118 -323 -159
-235 -70 -383 -153 -532 -295 -118 -113 -171 -231 -180 -402 -6 -100 -6 -100
-20 -55 -8 25 -15 51 -15 58 -1 6 -5 12 -10 12 -14 0 -9 183 7 245 24 90 70
161 170 261 141 142 296 231 535 309 183 59 248 85 298 119 44 30 48 31 57 14
6 -10 21 -25 33 -34z m70 -117 c25 -26 27 -36 31 -130 2 -68 7 -105 16 -112
11 -8 5 -41 -28 -172 -22 -90 -41 -162 -43 -160 -1 1 -7 126 -13 277 -7 151
-14 291 -16 310 -7 48 4 73 17 40 5 -14 21 -38 36 -53z m-73 -549 c8 -570 3
-624 -42 -449 -4 19 -14 36 -22 39 -19 6 -6 -63 19 -103 77 -121 137 -282 147
-393 6 -61 5 -64 -28 -99 -44 -46 -99 -70 -201 -88 -114 -20 -141 -19 -166 8
-17 18 -156 356 -290 702 -32 84 -117 340 -128 388 -3 15 -8 26 -11 23 -15
-15 115 -401 239 -706 17 -41 48 -120 70 -175 21 -55 42 -109 47 -120 17 -41
31 -76 31 -80 0 -8 -76 8 -102 22 -15 7 -38 25 -52 39 -19 21 -32 26 -67 25
-149 -3 -261 1 -286 11 -15 6 -50 15 -78 19 -140 23 -126 -24 -119 388 5 281
10 379 21 421 26 93 67 162 147 249 56 59 144 123 158 115 7 -4 8 -3 4 4 -3 6
2 16 12 21 18 9 22 2 47 -92 47 -177 215 -661 273 -787 100 -218 251 -490 252
-453 0 7 -24 50 -53 95 -89 139 -196 375 -288 633 -61 173 -95 387 -86 539 11
168 -5 151 203 222 180 61 258 95 304 132 25 20 25 20 31 -3 4 -12 10 -259 14
-547z m-1194 325 c5 -14 14 -20 23 -17 10 4 22 -11 40 -46 14 -28 26 -59 26
-67 0 -22 -47 -121 -75 -158 -12 -16 -32 -59 -44 -95 -12 -36 -25 -71 -30 -78
-15 -24 -23 153 -15 350 7 189 7 189 36 161 17 -15 34 -38 39 -50z m643 -5
c-4 -13 -10 -75 -13 -138 -5 -88 -3 -136 11 -205 31 -165 17 -137 -58 115 -60
201 -60 186 -1 220 62 36 70 37 61 8z m740 -65 c3 -21 6 -61 6 -89 0 -28 7
-71 16 -95 10 -28 19 -107 24 -214 6 -93 15 -253 21 -355 10 -179 10 -186 -11
-232 -11 -27 -22 -48 -23 -48 -1 0 -3 69 -5 153 -1 83 -11 260 -22 392 -24
302 -33 525 -21 525 4 0 11 -17 15 -37z m-28 -205 c7 -117 17 -271 23 -343 5
-71 12 -184 14 -250 5 -120 5 -120 -15 -35 -11 47 -35 137 -54 200 -77 253
-78 259 -66 319 22 108 77 329 81 325 2 -2 10 -99 17 -216z m95 179 c11 -5 9
-10 -8 -23 -13 -9 -23 -22 -23 -30 0 -7 -4 -16 -10 -19 -6 -4 -10 17 -10 54 0
60 0 61 19 42 10 -10 25 -21 32 -24z m-1333 -89 c1 -23 -4 -51 -11 -62 -6 -12
-18 -59 -27 -106 -19 -98 -12 -198 20 -290 12 -35 22 -101 27 -182 5 -71 7
-128 6 -128 -2 0 -19 24 -38 53 -31 47 -37 66 -50 171 -17 125 -26 148 -76
185 -26 19 -28 24 -16 34 8 7 21 42 28 80 7 37 16 67 20 67 4 0 10 10 12 23 2
12 5 -38 6 -111 0 -79 5 -131 10 -127 5 3 12 -5 14 -17 3 -13 5 2 5 32 0 172
5 282 11 245 6 -40 6 -40 13 -1 5 26 3 45 -5 55 -11 14 -10 14 6 2 19 -15 24
-2 6 16 -8 8 -8 16 0 30 11 16 11 16 6 -4 -3 -12 -1 -24 5 -28 6 -3 11 4 12
17 1 13 2 30 4 38 1 8 2 23 3 33 2 34 9 16 9 -25z m1145 -380 c16 -67 29 -233
41 -498 5 -105 5 -105 -23 -20 -16 47 -36 103 -45 124 -15 33 -17 71 -16 240
0 134 4 202 11 205 7 2 6 7 -2 12 -11 7 -11 9 2 9 11 0 20 -20 32 -72z m84
-268 c35 -134 38 -156 37 -280 0 -74 -3 -143 -7 -152 -6 -16 -9 -16 -30 6 -23
23 -24 31 -30 227 -4 112 -10 238 -13 279 -4 41 -4 73 -1 70 3 -3 23 -71 44
-150z m-1053 -482 c3 -18 10 -125 16 -238 6 -113 13 -229 15 -258 4 -40 0 -65
-15 -98 -11 -24 -22 -44 -24 -44 -2 0 -4 48 -5 106 -1 59 -6 173 -11 253 -14
221 -13 311 5 311 8 0 16 -13 19 -32z m43 24 c17 -10 21 -37 38 -222 9 -90 18
-174 21 -186 6 -25 -3 -64 -15 -64 -4 0 -8 6 -8 13 -1 51 -26 303 -30 307 -5
5 -3 -39 13 -282 4 -60 3 -98 -3 -98 -5 0 -15 94 -22 213 -6 116 -15 238 -18
270 -5 55 -1 65 24 49z m290 -41 c13 -17 40 -99 47 -142 4 -23 -2 -29 -49 -52
-29 -14 -69 -39 -88 -56 -35 -31 -35 -31 -41 1 -14 71 -27 108 -37 103 -5 -4
-6 -12 -2 -18 4 -7 8 -44 9 -83 1 -59 -2 -75 -21 -98 -22 -28 -22 -28 -28 -4
-3 12 -13 88 -21 168 -9 80 -18 159 -21 176 -5 30 -5 30 117 26 98 -4 125 -8
135 -21z m101 -32 c12 -17 12 -21 1 -15 -8 4 -6 1 3 -7 10 -8 21 -28 24 -46 6
-28 3 -32 -27 -45 -34 -14 -34 -14 -40 14 -4 16 -9 57 -13 91 -7 61 -7 61 14
46 12 -8 29 -25 38 -38z m71 -46 c8 -21 10 -22 7 -5 -5 25 21 31 42 10 21 -21
13 -35 -27 -46 -36 -9 -40 -8 -45 12 -15 55 4 78 23 29z m551 -88 c6 -30 24
-93 39 -140 15 -47 26 -85 24 -85 -16 0 -76 40 -115 76 -26 24 -56 44 -67 44
-11 0 -36 10 -56 21 -37 22 -37 22 42 59 43 20 87 47 97 58 11 12 20 22 22 22
1 0 8 -25 14 -55z m-154 -106 c45 -22 90 -49 99 -59 13 -15 16 -44 15 -181 0
-90 -4 -179 -8 -198 -7 -34 -7 -34 -42 12 -19 26 -40 47 -45 47 -6 0 -19 19
-30 43 -12 24 -26 41 -34 39 -8 -2 -11 3 -8 12 4 9 1 15 -6 13 -7 -1 -11 4 -9
11 1 8 -2 11 -7 8 -11 -7 -75 103 -112 191 -14 35 -29 66 -32 70 -16 15 -4 22
46 26 28 2 60 4 71 5 10 1 56 -16 102 -39z m-201 -64 c51 -110 156 -271 231
-355 94 -106 164 -225 164 -280 0 -30 0 -30 -28 -16 -16 8 -35 23 -43 33 -12
16 -11 16 9 -1 12 -11 22 -14 22 -8 0 6 -11 19 -25 28 -38 25 -94 5 -135 -46
-44 -56 -62 -52 -89 18 -12 31 -29 69 -36 83 -24 45 -121 406 -111 416 2 2 16
-47 31 -109 26 -104 54 -187 54 -163 1 6 -6 35 -15 65 -8 30 -34 129 -58 220
-24 91 -46 172 -50 182 -5 11 -2 18 11 21 10 3 19 5 21 6 2 0 23 -42 47 -94z
m-95 28 c6 -32 18 -85 25 -118 8 -33 25 -110 39 -172 29 -126 77 -282 112
-362 13 -29 24 -59 24 -66 0 -15 -112 -26 -181 -18 -46 5 -46 5 -67 187 -18
148 -44 416 -55 561 -2 25 2 30 28 36 61 14 63 13 75 -48z m-113 -63 c0 -45 0
-45 -8 0 -5 30 -6 17 -2 -40 2 -47 8 -87 11 -90 4 -3 8 -25 9 -50 1 -25 13
-144 27 -265 14 -120 24 -220 23 -222 -2 -1 -19 -4 -38 -5 -38 -3 -33 -30 -59
297 -6 77 -18 209 -27 294 -12 128 -13 155 -1 162 22 15 36 10 41 -13 4 -19 5
-18 7 7 2 30 2 30 10 0 4 -16 7 -50 7 -75z m-68 -180 c11 -129 24 -292 27
-363 8 -150 5 -152 -71 -52 -27 36 -56 66 -64 66 -9 1 -23 2 -31 3 -8 1 -21
-3 -27 -8 -16 -11 -16 4 0 25 19 24 58 42 96 43 19 1 36 6 38 12 5 14 -86 -1
-101 -16 -19 -19 -23 -10 -13 28 10 38 5 83 -35 310 -11 62 -11 63 18 94 41
43 128 107 135 99 3 -3 16 -112 28 -241z m657 152 c32 -29 55 -91 124 -342 20
-70 47 -141 71 -182 22 -36 39 -69 39 -72 0 -3 -16 -6 -35 -6 -41 0 -49 13
-114 185 -33 88 -131 418 -131 440 0 12 18 3 46 -23z m-843 -179 c9 -60 19
-137 22 -173 4 -61 4 -62 -5 -17 -14 79 -21 67 -14 -25 5 -59 3 -87 -5 -92 -6
-4 -11 -20 -11 -36 0 -26 -15 -48 -25 -38 -4 4 -11 63 -36 294 -10 103 -10
114 7 143 21 35 31 39 37 14 2 -10 3 -6 1 10 -2 15 0 27 4 27 5 0 16 -48 25
-107z m851 -78 c13 -44 45 -134 71 -200 26 -66 47 -127 48 -135 2 -11 -8 -15
-32 -15 -35 0 -35 0 -64 95 -63 206 -77 270 -76 354 1 91 -5 104 53 -99z
m-935 -147 c13 -164 13 -164 -11 -201 -16 -25 -30 -36 -48 -36 -56 -1 -56 1
-35 305 1 17 9 41 18 55 17 23 17 23 18 -1 1 -14 5 -79 9 -145 7 -120 7 -120
8 40 0 162 9 226 23 174 3 -14 12 -100 18 -191z m-122 -30 c-4 -46 -7 -104 -7
-130 0 -47 -1 -48 -30 -48 -35 0 -34 -5 -16 132 12 92 26 128 49 128 6 0 8
-29 4 -82z m295 -92 c10 -7 29 -29 42 -48 24 -36 24 -36 -22 -69 -25 -19 -53
-39 -61 -46 -23 -18 -156 -29 -165 -14 -12 19 33 100 64 116 15 8 30 12 33 9
2 -3 15 11 27 30 23 39 51 46 82 22z m679 -39 c6 -13 25 -29 44 -35 25 -10 36
-23 49 -57 10 -24 15 -49 11 -55 -8 -13 -51 -13 -114 1 -43 9 -53 16 -74 52
-28 48 -22 78 22 102 37 20 50 18 62 -8z"/>
<path d="M1326 2078 c2 -18 6 -44 9 -56 4 -17 2 -22 -6 -16 -9 5 -10 1 -4 -17
4 -13 9 -42 10 -64 3 -50 13 -149 21 -194 3 -19 7 -60 9 -90 6 -94 26 -274 31
-283 12 -19 22 -6 19 25 -2 17 -8 84 -14 147 -28 293 -61 563 -71 573 -4 5 -6
-6 -4 -25z"/>
<path d="M1296 1556 c3 -83 6 -152 8 -154 11 -10 11 26 0 158 -12 145 -12 145
-8 -4z"/>
<path d="M2030 921 c0 -5 7 -14 15 -21 8 -6 17 -22 21 -33 11 -37 116 -270
132 -295 35 -54 17 -5 -53 143 -41 87 -79 171 -84 187 -9 26 -31 40 -31 19z"/>
<path d="M2280 552 c0 -7 5 -22 10 -33 14 -25 -1 -24 -29 2 -12 12 -24 19 -27
17 -2 -3 31 -33 73 -69 42 -35 90 -85 107 -111 29 -44 46 -59 46 -39 0 17 -90
125 -126 150 -20 14 -31 27 -24 29 6 2 21 -4 32 -14 21 -19 21 -19 9 4 -6 12
-17 22 -24 22 -7 0 -20 12 -29 28 -10 15 -18 21 -18 14z"/>
<path d="M1812 5194 c-16 -11 -22 -25 -21 -52 0 -20 3 -30 6 -22 8 20 33 44
33 31 0 -5 14 -9 30 -9 31 1 34 5 24 31 -3 9 -15 13 -32 10 -27 -4 -27 -4 -2
11 23 14 23 15 5 16 -11 0 -31 -7 -43 -16z"/>
<path d="M1623 5175 c-9 -7 -26 -10 -37 -8 -16 3 -15 1 4 -8 29 -13 130 -20
130 -9 0 25 -71 44 -97 25z"/>
<path d="M2860 4403 c-16 -27 -30 -62 -30 -80 0 -17 -3 -39 -7 -49 -6 -15 -2
-14 26 5 37 26 47 49 57 121 9 65 -6 65 -46 3z m29 -27 c-9 -49 -23 -76 -40
-76 -17 0 -9 42 17 86 15 25 28 44 29 42 2 -2 -1 -25 -6 -52z"/>
<path d="M711 4278 c-1 -10 -4 -18 -9 -18 -7 0 -25 -37 -37 -77 -5 -19 -14
-23 -68 -26 -62 -3 -62 -3 -1 -5 61 -2 61 -2 51 -50 -15 -72 -8 -82 58 -82 30
0 55 3 55 8 0 4 -17 7 -37 7 -37 0 -38 1 -35 35 1 19 7 39 12 44 6 6 10 21 10
34 0 19 -3 22 -13 13 -21 -17 -27 -3 -11 27 8 15 14 34 14 43 0 8 5 20 11 26
6 6 9 17 6 25 -4 9 -6 7 -6 -4z"/>
<path d="M531 4103 c8 -44 -15 -54 -63 -29 -25 13 -28 13 -28 -1 0 -13 -8 -14
-40 -9 -22 3 -40 2 -40 -3 0 -12 72 -20 86 -10 18 15 82 -2 87 -22 5 -20 32
-24 74 -13 21 6 22 8 7 35 -8 16 -22 29 -30 29 -12 0 -10 -5 7 -19 19 -16 21
-22 12 -32 -9 -9 -18 -10 -36 -2 -19 9 -23 17 -19 41 2 16 -1 33 -7 37 -6 3
-11 3 -10 -2z"/>
<path d="M2752 4070 c10 -31 94 -108 105 -97 3 4 -2 25 -12 47 -20 44 -32 49
-16 6 13 -33 2 -33 -33 -1 -29 27 -30 51 -1 48 25 -2 5 13 -27 21 -26 6 -27 5
-16 -24z"/>
<path d="M1840 3965 c0 -16 43 -42 85 -49 15 -3 29 -7 32 -9 6 -7 -149 -47
-159 -41 -4 3 -8 0 -8 -7 0 -19 -16 1 -25 30 -5 18 -4 22 5 16 9 -5 11 -4 6 3
-13 21 -28 13 -24 -13 6 -28 4 -29 -23 -15 -10 6 -19 8 -19 6 0 -3 23 -17 50
-31 47 -24 52 -24 67 -9 11 11 26 14 45 10 34 -7 112 28 105 47 -2 7 -16 15
-30 20 -15 4 -39 10 -54 15 -43 12 -41 32 4 27 31 -4 34 -3 13 4 -40 14 -70
13 -70 -4z"/>
<path d="M1602 923 c-24 -20 -66 -76 -96 -127 -30 -50 -79 -128 -109 -173 -30
-46 -51 -83 -46 -83 11 0 46 52 139 205 46 75 99 148 126 173 56 51 46 56 -14
5z"/>
<path d="M1303 507 c-15 -12 -48 -36 -71 -52 -46 -31 -112 -101 -112 -119 0
-6 9 3 20 20 20 31 62 67 137 118 41 27 71 56 60 56 -3 0 -18 -10 -34 -23z"/>
<path d="M915 240 c-55 -55 -95 -100 -89 -100 6 0 50 41 97 91 65 68 93 92
112 92 14 0 25 3 25 8 0 5 -10 9 -23 9 -15 0 -54 -32 -122 -100z"/>
</g>
</svg>
